# xmcd CD database file
#
# Track frame offsets:
#	150
#	17522
#	31552
#	48107
#	63517
#	81972
#	91615
#	107735
#	128537
#	146860
#
# Disc length: 2163 seconds
#
# Revision: 1
# Processed by: cddbd v1.5PL3 Copyright (c) Steve Scherf et al.
# Submitted via: CDex 1.51
#
DISCID=7008710a
DTITLE=Various Artist - Blues Harp Hotshots
DYEAR=1998
DGENRE=Blues
TTITLE0=The Crawl - She's Takin' Me To Heaven
TTITLE1=Sugar Ray Feat. The Bluetones - The Helmet (Bluetone March)
TTITLE2=James Harman Band - Leavin' For Memphis
TTITLE3=Rick L.A. Holmes Holmstrom With Rod Piazza - The Floater
TTITLE4=Charlie Sayles - Eli
TTITLE5=Snooks Eaglin, Sam Myers, Anson Funderburgh - Bombastic
TTITLE6=Butler Twins - What A Poor Man's Supposed To Do
TTITLE7=Carey Bell - 85%
TTITLE8=Jordan Patterson - No Educated Woman
TTITLE9=Randy Mcallister - Babe And Nan's Thing
EXTD=YEAR: 1998
EXTT0=
EXTT1=
EXTT2=
EXTT3=
EXTT4=
EXTT5=
EXTT6=
EXTT7=
EXTT8=
EXTT9=
PLAYORDER=
